<?xml version="1.0" encoding="iso-8859-1"?>
<!-- Generator: Adobe Illustrator 19.0.0, SVG Export Plug-In . SVG Version: 6.00 Build 0)  -->
<svg version="1.1" id="Layer_1" xmlns="http://www.w3.org/2000/svg" xmlns:xlink="http://www.w3.org/1999/xlink" x="0px" y="0px"
	 viewBox="0 0 512 512" style="enable-background:new 0 0 512 512;" xml:space="preserve">
<g>
	<g>
		<path d="M479.786,243.026c-17.62-17.618-46.288-17.617-63.907,0l-114.69,114.691V45.189C301.189,20.271,280.918,0,256,0
			s-45.189,20.271-45.189,45.189v312.528L96.121,243.026c-17.62-17.618-46.288-17.619-63.907,0
			c-8.536,8.536-13.235,19.883-13.235,31.954c0,12.07,4.701,23.418,13.235,31.953l191.833,191.832C232.583,507.3,243.93,512,256,512
			c12.07,0,23.417-4.7,31.953-13.235l191.833-191.832c8.536-8.535,13.235-19.883,13.235-31.953
			C493.021,262.909,488.321,251.561,479.786,243.026z M465.361,292.509L273.529,484.341c-4.682,4.682-10.908,7.261-17.529,7.261
			s-12.847-2.578-17.528-7.261L46.639,292.509c-4.682-4.682-7.261-10.908-7.261-17.529c0-6.622,2.578-12.847,7.261-17.529
			c4.833-4.833,11.181-7.25,17.529-7.25c6.348,0,12.696,2.416,17.529,7.25l132.101,132.101c2.917,2.917,7.305,3.789,11.115,2.211
			c3.81-1.579,6.296-5.298,6.296-9.423V45.189c0-13.669,11.121-24.79,24.79-24.79c13.669,0,24.79,11.121,24.79,24.79V382.34
			c0,4.126,2.485,7.844,6.296,9.423c3.811,1.58,8.198,0.707,11.115-2.211L430.302,257.45c9.666-9.666,25.393-9.667,35.059,0
			c4.682,4.682,7.261,10.907,7.261,17.529C472.622,281.601,470.044,287.827,465.361,292.509z"/>
	</g>
</g>
<g>
	<g>
		<path d="M371.834,359.958c-3.984-3.983-10.442-3.983-14.425,0l-3.06,3.06c-3.983,3.984-3.983,10.442,0,14.425
			c1.991,1.992,4.602,2.987,7.212,2.987s5.221-0.995,7.213-2.987l3.06-3.06C375.817,370.399,375.817,363.941,371.834,359.958z"/>
	</g>
</g>
<g>
	<g>
		<path d="M345.827,385.966c-3.984-3.983-10.442-3.983-14.425,0l-80.574,80.574c-3.983,3.984-3.983,10.442,0,14.425
			c1.991,1.992,4.602,2.987,7.212,2.987s5.221-0.995,7.213-2.987l80.574-80.574C349.809,396.407,349.81,389.949,345.827,385.966z"/>
	</g>
</g>
<g>
</g>
<g>
</g>
<g>
</g>
<g>
</g>
<g>
</g>
<g>
</g>
<g>
</g>
<g>
</g>
<g>
</g>
<g>
</g>
<g>
</g>
<g>
</g>
<g>
</g>
<g>
</g>
<g>
</g>
</svg>
