<svg width="376" height="404" viewBox="0 0 376 404" fill="none" xmlns="http://www.w3.org/2000/svg">
<path d="M0 52C0 38.7452 10.7452 28 24 28H116V404H24C10.7452 404 0 393.255 0 380V52Z" fill="#9F9F9F"/>
<path d="M13 52C13 38.7452 23.7452 28 37 28H116V404H37C23.7452 404 13 393.255 13 380V52Z" fill="#D9D9D9"/>
<path d="M260 28H352C365.255 28 376 38.7452 376 52V380C376 393.255 365.255 404 352 404H260V28Z" fill="#9F9F9F"/>
<path d="M260 28H339C352.255 28 363 38.7452 363 52V380C363 393.255 352.255 404 339 404H260V28Z" fill="#D9D9D9"/>
<path d="M272 28H327C340.255 28 351 38.7452 351 52V380C351 393.255 340.255 404 327 404H272V28Z" fill="#E9E9E9"/>
<path d="M108 30H54C40.7452 30 30 40.7452 30 54V378C30 391.255 40.7452 402 54 402H108V30Z" fill="#E9E9E9"/>
<path d="M108 41H59C45.7452 41 35 51.7452 35 65V367C35 380.255 45.7452 391 59 391H108V41Z" fill="#E9E9E9"/>
<g style="mix-blend-mode:overlay">
<rect x="264" y="70" width="108" height="4" rx="2" fill="#282828"/>
</g>
<g style="mix-blend-mode:overlay">
<rect x="264" y="80" width="108" height="4" rx="2" fill="#282828"/>
</g>
<g style="mix-blend-mode:overlay">
<rect x="264" y="110" width="108" height="4" rx="2" fill="#282828"/>
</g>
<g style="mix-blend-mode:overlay">
<rect x="264" y="100" width="108" height="4" rx="2" fill="#282828"/>
</g>
<g style="mix-blend-mode:overlay">
<rect x="264" y="90" width="108" height="4" rx="2" fill="#282828"/>
</g>
<g style="mix-blend-mode:overlay">
<rect x="264" y="120" width="108" height="4" rx="2" fill="#282828"/>
</g>
<g style="mix-blend-mode:overlay">
<rect x="264" y="130" width="108" height="4" rx="2" fill="#282828"/>
</g>
<g style="mix-blend-mode:overlay">
<rect x="264" y="160" width="108" height="4" rx="2" fill="#282828"/>
</g>
<g style="mix-blend-mode:overlay">
<rect x="264" y="150" width="108" height="4" rx="2" fill="#282828"/>
</g>
<g style="mix-blend-mode:overlay">
<rect x="264" y="140" width="108" height="4" rx="2" fill="#282828"/>
</g>
<g style="mix-blend-mode:overlay">
<rect x="264" y="270" width="108" height="4" rx="2" fill="#282828"/>
</g>
<g style="mix-blend-mode:overlay">
<rect x="264" y="280" width="108" height="4" rx="2" fill="#282828"/>
</g>
<g style="mix-blend-mode:overlay">
<rect x="264" y="310" width="108" height="4" rx="2" fill="#282828"/>
</g>
<g style="mix-blend-mode:overlay">
<rect x="264" y="300" width="108" height="4" rx="2" fill="#282828"/>
</g>
<g style="mix-blend-mode:overlay">
<rect x="264" y="290" width="108" height="4" rx="2" fill="#282828"/>
</g>
<g style="mix-blend-mode:overlay">
<rect x="264" y="320" width="108" height="4" rx="2" fill="#282828"/>
</g>
<g style="mix-blend-mode:overlay">
<rect x="264" y="330" width="108" height="4" rx="2" fill="#282828"/>
</g>
<g style="mix-blend-mode:overlay">
<rect x="264" y="360" width="108" height="4" rx="2" fill="#282828"/>
</g>
<g style="mix-blend-mode:overlay">
<rect x="264" y="350" width="108" height="4" rx="2" fill="#282828"/>
</g>
<g style="mix-blend-mode:overlay">
<rect x="264" y="340" width="108" height="4" rx="2" fill="#282828"/>
</g>
<g style="mix-blend-mode:overlay">
<rect x="264" y="170" width="108" height="4" rx="2" fill="#282828"/>
</g>
<g style="mix-blend-mode:overlay">
<rect x="264" y="180" width="108" height="4" rx="2" fill="#282828"/>
</g>
<g style="mix-blend-mode:overlay">
<rect x="264" y="210" width="108" height="4" rx="2" fill="#282828"/>
</g>
<g style="mix-blend-mode:overlay">
<rect x="264" y="200" width="108" height="4" rx="2" fill="#282828"/>
</g>
<g style="mix-blend-mode:overlay">
<rect x="264" y="190" width="108" height="4" rx="2" fill="#282828"/>
</g>
<g style="mix-blend-mode:overlay">
<rect x="264" y="220" width="108" height="4" rx="2" fill="#282828"/>
</g>
<g style="mix-blend-mode:overlay">
<rect x="264" y="230" width="108" height="4" rx="2" fill="#282828"/>
</g>
<g style="mix-blend-mode:overlay">
<rect x="264" y="260" width="108" height="4" rx="2" fill="#282828"/>
</g>
<g style="mix-blend-mode:overlay">
<rect x="264" y="250" width="108" height="4" rx="2" fill="#282828"/>
</g>
<g style="mix-blend-mode:overlay">
<rect x="264" y="240" width="108" height="4" rx="2" fill="#282828"/>
</g>
<g style="mix-blend-mode:overlay">
<rect x="8" y="69" width="108" height="4" rx="2" fill="#282828"/>
</g>
<g style="mix-blend-mode:overlay">
<rect x="8" y="79" width="108" height="4" rx="2" fill="#282828"/>
</g>
<g style="mix-blend-mode:overlay">
<rect x="8" y="109" width="108" height="4" rx="2" fill="#282828"/>
</g>
<g style="mix-blend-mode:overlay">
<rect x="8" y="99" width="108" height="4" rx="2" fill="#282828"/>
</g>
<g style="mix-blend-mode:overlay">
<rect x="8" y="89" width="108" height="4" rx="2" fill="#282828"/>
</g>
<g style="mix-blend-mode:overlay">
<rect x="8" y="119" width="108" height="4" rx="2" fill="#282828"/>
</g>
<g style="mix-blend-mode:overlay">
<rect x="8" y="129" width="108" height="4" rx="2" fill="#282828"/>
</g>
<g style="mix-blend-mode:overlay">
<rect x="8" y="159" width="108" height="4" rx="2" fill="#282828"/>
</g>
<g style="mix-blend-mode:overlay">
<rect x="8" y="149" width="108" height="4" rx="2" fill="#282828"/>
</g>
<g style="mix-blend-mode:overlay">
<rect x="8" y="139" width="108" height="4" rx="2" fill="#282828"/>
</g>
<g style="mix-blend-mode:overlay">
<rect x="8" y="269" width="108" height="4" rx="2" fill="#282828"/>
</g>
<g style="mix-blend-mode:overlay">
<rect x="8" y="279" width="108" height="4" rx="2" fill="#282828"/>
</g>
<g style="mix-blend-mode:overlay">
<rect x="8" y="309" width="108" height="4" rx="2" fill="#282828"/>
</g>
<g style="mix-blend-mode:overlay">
<rect x="8" y="299" width="108" height="4" rx="2" fill="#282828"/>
</g>
<g style="mix-blend-mode:overlay">
<rect x="8" y="289" width="108" height="4" rx="2" fill="#282828"/>
</g>
<g style="mix-blend-mode:overlay">
<rect x="8" y="319" width="108" height="4" rx="2" fill="#282828"/>
</g>
<g style="mix-blend-mode:overlay">
<rect x="8" y="329" width="108" height="4" rx="2" fill="#282828"/>
</g>
<g style="mix-blend-mode:overlay">
<rect x="8" y="359" width="108" height="4" rx="2" fill="#282828"/>
</g>
<g style="mix-blend-mode:overlay">
<rect x="8" y="349" width="108" height="4" rx="2" fill="#282828"/>
</g>
<g style="mix-blend-mode:overlay">
<rect x="8" y="339" width="108" height="4" rx="2" fill="#282828"/>
</g>
<g style="mix-blend-mode:overlay">
<rect x="8" y="169" width="108" height="4" rx="2" fill="#282828"/>
</g>
<g style="mix-blend-mode:overlay">
<rect x="8" y="179" width="108" height="4" rx="2" fill="#282828"/>
</g>
<g style="mix-blend-mode:overlay">
<rect x="8" y="209" width="108" height="4" rx="2" fill="#282828"/>
</g>
<g style="mix-blend-mode:overlay">
<rect x="8" y="199" width="108" height="4" rx="2" fill="#282828"/>
</g>
<g style="mix-blend-mode:overlay">
<rect x="8" y="189" width="108" height="4" rx="2" fill="#282828"/>
</g>
<g style="mix-blend-mode:overlay">
<rect x="8" y="219" width="108" height="4" rx="2" fill="#282828"/>
</g>
<g style="mix-blend-mode:overlay">
<rect x="8" y="229" width="108" height="4" rx="2" fill="#282828"/>
</g>
<g style="mix-blend-mode:overlay">
<rect x="8" y="259" width="108" height="4" rx="2" fill="#282828"/>
</g>
<g style="mix-blend-mode:overlay">
<rect x="8" y="249" width="108" height="4" rx="2" fill="#282828"/>
</g>
<g style="mix-blend-mode:overlay">
<rect x="8" y="239" width="108" height="4" rx="2" fill="#282828"/>
</g>
<rect x="82" y="165" width="210" height="210" rx="52" fill="#BDBCBC"/>
<rect x="96" y="182" width="182" height="182" rx="52" fill="#888888"/>
<rect x="96" y="178" width="182" height="182" rx="52" fill="#D4D4D4"/>
<rect x="110" y="187" width="154" height="154" rx="52" fill="#888888"/>
<rect x="112" y="186" width="150" height="150" rx="52" fill="#D4D4D4"/>
<path d="M214.214 269.286C197.52 279.539 176.48 279.539 159.786 269.286L91.6352 227.43C70.2867 214.319 61.3224 187.849 70.3111 164.463L92.4816 106.784C100.203 86.6965 119.499 73.4405 141.019 73.4405H232.981C254.501 73.4405 273.797 86.6965 281.518 106.784L303.689 164.463C312.678 187.849 303.713 214.319 282.365 227.43L214.214 269.286Z" fill="#BDBCBC"/>
<path d="M214.726 265.268C198.026 275.531 176.974 275.531 160.274 265.268L103.999 230.685C82.6621 217.572 73.7028 191.114 82.6833 167.735L100.333 121.789C108.051 101.696 127.351 88.4352 148.875 88.4352H226.125C247.649 88.4352 266.949 101.696 274.667 121.789L292.317 167.735C301.297 191.114 292.338 217.572 271.001 230.685L214.726 265.268Z" fill="#797979"/>
<path d="M214.189 257.322C197.507 267.555 176.493 267.555 159.811 257.322L107.853 225.452C86.4803 212.342 77.5061 185.848 86.5115 162.449L102.466 120.994C110.192 100.918 129.484 87.6712 150.996 87.6712L223.004 87.6712C244.516 87.6712 263.808 100.918 271.534 120.994L287.488 162.449C296.494 185.848 287.52 212.342 266.147 225.452L214.189 257.322Z" fill="#D5D5D5"/>
<path d="M217.775 246.197C201.051 256.5 179.949 256.5 163.225 246.197L124.022 222.046C102.731 208.93 93.7913 182.517 102.739 159.166L113.929 129.964C121.637 109.85 140.947 96.5704 162.486 96.5704L218.514 96.5704C240.053 96.5704 259.363 109.85 267.071 129.964L278.261 159.166C287.209 182.517 278.269 208.93 256.978 222.046L217.775 246.197Z" fill="#797979"/>
<path d="M217.156 239.37C200.49 249.576 179.51 249.576 162.844 239.37L127.086 217.473C105.682 204.366 96.695 177.842 105.723 154.423L115.447 129.198C123.181 109.135 142.465 95.902 163.967 95.902L216.033 95.902C237.535 95.902 256.819 109.135 264.553 129.198L274.277 154.423C283.305 177.842 274.318 204.366 252.914 217.473L217.156 239.37Z" fill="#D5D5D5"/>
<rect x="164" width="47" height="230" rx="6" fill="#AEAEAE"/>
<rect x="164" y="205" width="47" height="25" rx="6" fill="#989898"/>
<rect x="171" y="205" width="33" height="25" rx="6" fill="#B5B5B5"/>
<rect x="176" y="205" width="23" height="25" rx="6" fill="#D7D7D7"/>
<rect x="188" y="205" width="6" height="25" rx="3" fill="white"/>
<rect x="168" width="37" height="177" rx="5" fill="#C0C0C0"/>
<rect x="177" width="20" height="161" rx="3" fill="#D0D0D0"/>
<rect x="188" width="6" height="161" rx="3" fill="white"/>
<rect x="143" y="109" width="90" height="90" rx="17" fill="#9F9F9F"/>
<rect x="151" y="109" width="74" height="90" rx="17" fill="#C0C0C0"/>
<rect x="161" y="109" width="60" height="90" rx="17" fill="#D2D2D2"/>
<rect x="173" y="109" width="36" height="90" rx="17" fill="white"/>
</svg>
