<svg width="451" height="452" viewBox="0 0 451 452" fill="none" xmlns="http://www.w3.org/2000/svg">
<rect x="0.639679" y="451.639" width="179" height="450" rx="20" transform="rotate(-90.0783 0.639679 451.639)" fill="#BBBBBB"/>
<rect x="450.023" y="0.361176" width="179" height="450" rx="20" transform="rotate(89.9217 450.023 0.361176)" fill="#BBBBBB"/>
<path d="M433.908 20.3773L434.136 187.046L15.136 187.619L14.956 55.95C14.9296 36.6201 30.5782 20.9286 49.9082 20.9022L433.908 20.3773Z" fill="#939393"/>
<path d="M433.89 430.047L433.663 263.665L15.3835 264.236L15.5631 395.618C15.5895 414.948 31.281 430.597 50.6109 430.571L433.89 430.047Z" fill="#939393"/>
<rect x="419.201" y="26.274" width="160.792" height="389.143" rx="24" transform="rotate(89.9217 419.201 26.274)" fill="#A7A7A7"/>
<rect x="417.527" y="264.276" width="160.792" height="389.143" rx="24" transform="rotate(89.9217 417.527 264.276)" fill="#A7A7A7"/>
<g filter="url(#filter0_d_0_1)">
<path d="M6.33145 226.131L115.822 35.8884L335.321 35.5884L445.331 225.531L335.841 415.773L116.341 416.073L6.33145 226.131Z" fill="#D9D9D9"/>
</g>
<path d="M16.3314 226.117L120.335 45.4085L328.834 45.1236L433.331 225.547L329.328 406.256L120.828 406.541L16.3314 226.117Z" fill="#CACACA"/>
<path d="M66.3314 226.049L88.2578 143.769L148.387 83.4753L230.606 61.3241L312.886 83.2505L373.18 143.379L395.331 225.599L373.405 307.879L313.276 368.173L231.056 390.324L148.776 368.397L88.4827 308.269L66.3314 226.049Z" fill="#C0C0C0"/>
<path d="M51.3314 226.069L94.479 151.099L180.979 150.981L224.331 225.833L181.184 300.803L94.6838 300.921L51.3314 226.069Z" fill="#A8A8A8"/>
<path d="M51.3314 226.069L87.4956 163.233L159.995 163.134L196.331 225.871L160.167 288.707L87.6672 288.807L51.3314 226.069Z" fill="#919191"/>
<g filter="url(#filter1_d_0_1)">
<path d="M28.3314 226.101L64.4956 163.264L136.996 163.165L173.331 225.903L137.167 288.739L64.6672 288.838L28.3314 226.101Z" fill="#919191"/>
</g>
<path d="M35.3321 226.591L67.7552 170.255L132.755 170.166L165.332 226.414L132.909 282.75L67.9091 282.838L35.3321 226.591Z" fill="#6B6B6B"/>
<path d="M66.3321 226.549L98.7551 170.213L163.755 170.124L196.332 226.371L163.909 282.707L98.909 282.796L66.3321 226.549Z" fill="#6B6B6B"/>
<g filter="url(#filter2_d_0_1)">
<circle cx="259.332" cy="226.285" r="122" transform="rotate(-90.0783 259.332 226.285)" fill="#8C8C8C"/>
</g>
<circle cx="259.332" cy="226.285" r="114" transform="rotate(-90.0783 259.332 226.285)" fill="#787878"/>
<circle cx="259.332" cy="226.285" r="114" transform="rotate(-90.0783 259.332 226.285)" fill="#787878"/>
<circle cx="259.831" cy="225.784" r="90" transform="rotate(-90.0783 259.831 225.784)" fill="#555555" stroke="#959595" stroke-width="5"/>
<defs>
<filter id="filter0_d_0_1" x="2.33145" y="35.5883" width="447" height="388.485" filterUnits="userSpaceOnUse" color-interpolation-filters="sRGB">
<feFlood flood-opacity="0" result="BackgroundImageFix"/>
<feColorMatrix in="SourceAlpha" type="matrix" values="0 0 0 0 0 0 0 0 0 0 0 0 0 0 0 0 0 0 127 0" result="hardAlpha"/>
<feOffset dy="4"/>
<feGaussianBlur stdDeviation="2"/>
<feComposite in2="hardAlpha" operator="out"/>
<feColorMatrix type="matrix" values="0 0 0 0 0 0 0 0 0 0 0 0 0 0 0 0 0 0 0.25 0"/>
<feBlend mode="normal" in2="BackgroundImageFix" result="effect1_dropShadow_0_1"/>
<feBlend mode="normal" in="SourceGraphic" in2="effect1_dropShadow_0_1" result="shape"/>
</filter>
<filter id="filter1_d_0_1" x="24.3315" y="163.165" width="153" height="133.673" filterUnits="userSpaceOnUse" color-interpolation-filters="sRGB">
<feFlood flood-opacity="0" result="BackgroundImageFix"/>
<feColorMatrix in="SourceAlpha" type="matrix" values="0 0 0 0 0 0 0 0 0 0 0 0 0 0 0 0 0 0 127 0" result="hardAlpha"/>
<feOffset dy="4"/>
<feGaussianBlur stdDeviation="2"/>
<feComposite in2="hardAlpha" operator="out"/>
<feColorMatrix type="matrix" values="0 0 0 0 0 0 0 0 0 0 0 0 0 0 0 0 0 0 0.25 0"/>
<feBlend mode="normal" in2="BackgroundImageFix" result="effect1_dropShadow_0_1"/>
<feBlend mode="normal" in="SourceGraphic" in2="effect1_dropShadow_0_1" result="shape"/>
</filter>
<filter id="filter2_d_0_1" x="133.332" y="104.285" width="252" height="252" filterUnits="userSpaceOnUse" color-interpolation-filters="sRGB">
<feFlood flood-opacity="0" result="BackgroundImageFix"/>
<feColorMatrix in="SourceAlpha" type="matrix" values="0 0 0 0 0 0 0 0 0 0 0 0 0 0 0 0 0 0 127 0" result="hardAlpha"/>
<feOffset dy="4"/>
<feGaussianBlur stdDeviation="2"/>
<feComposite in2="hardAlpha" operator="out"/>
<feColorMatrix type="matrix" values="0 0 0 0 0 0 0 0 0 0 0 0 0 0 0 0 0 0 0.25 0"/>
<feBlend mode="normal" in2="BackgroundImageFix" result="effect1_dropShadow_0_1"/>
<feBlend mode="normal" in="SourceGraphic" in2="effect1_dropShadow_0_1" result="shape"/>
</filter>
</defs>
</svg>
