<svg width="452" height="452" viewBox="0 0 452 452" fill="none" xmlns="http://www.w3.org/2000/svg">
<rect x="450.819" y="0.158203" width="179" height="450" rx="20" transform="rotate(89.8699 450.819 0.158203)" fill="#BBBBBB"/>
<rect x="1.84369" y="451.842" width="179" height="450" rx="20" transform="rotate(-90.1301 1.84369 451.842)" fill="#BBBBBB"/>
<path d="M17.9411 431.811L17.5626 265.143L436.562 264.191L436.861 395.86C436.904 415.19 421.27 430.895 401.94 430.939L17.9411 431.811Z" fill="#939393"/>
<path d="M17.5887 22.1419L17.9665 188.524L436.245 187.574L435.947 56.1921C435.903 36.8622 420.197 21.2278 400.867 21.2717L17.5887 22.1419Z" fill="#939393"/>
<rect x="32.6421" y="425.901" width="160.792" height="389.143" rx="24" transform="rotate(-90.1301 32.6421 425.901)" fill="#A7A7A7"/>
<rect x="34.1017" y="187.897" width="160.792" height="389.143" rx="24" transform="rotate(-90.1301 34.1017 187.897)" fill="#A7A7A7"/>
<g filter="url(#filter0_d_0_1)">
<path d="M445.331 225.671L336.013 416.013L116.514 416.511L6.33246 226.668L115.651 36.3268L335.15 35.8284L445.331 225.671Z" fill="#D9D9D9"/>
</g>
<path d="M435.331 225.694L331.492 406.496L122.992 406.97L18.3324 226.641L122.172 45.8382L330.672 45.3648L435.331 225.694Z" fill="#CACACA"/>
<path d="M385.331 225.807L363.479 308.107L303.405 368.455L221.205 390.681L138.906 368.829L78.5578 308.754L56.3323 226.555L78.1843 144.255L138.259 83.9069L220.458 61.6814L302.758 83.5334L363.106 143.608L385.331 225.807Z" fill="#C0C0C0"/>
<path d="M400.331 225.773L357.252 300.783L270.752 300.979L227.332 226.166L270.412 151.157L356.911 150.961L400.331 225.773Z" fill="#A8A8A8"/>
<path d="M400.331 225.773L364.224 288.642L291.724 288.807L255.332 226.103L291.439 163.234L363.939 163.069L400.331 225.773Z" fill="#919191"/>
<g filter="url(#filter1_d_0_1)">
<path d="M423.331 225.721L387.224 288.59L314.724 288.755L278.332 226.05L314.439 163.181L386.939 163.017L423.331 225.721Z" fill="#919191"/>
</g>
<path d="M416.33 225.237L383.958 281.602L318.958 281.75L286.331 225.532L318.703 169.167L383.703 169.019L416.33 225.237Z" fill="#6B6B6B"/>
<path d="M385.33 225.307L352.958 281.673L287.958 281.82L255.331 225.603L287.703 169.237L352.703 169.09L385.33 225.307Z" fill="#6B6B6B"/>
<g filter="url(#filter2_d_0_1)">
<circle cx="192.331" cy="225.746" r="122" transform="rotate(89.8699 192.331 225.746)" fill="#8C8C8C"/>
</g>
<circle cx="192.331" cy="225.746" r="114" transform="rotate(89.8699 192.331 225.746)" fill="#787878"/>
<circle cx="192.331" cy="225.746" r="114" transform="rotate(89.8699 192.331 225.746)" fill="#787878"/>
<circle cx="191.832" cy="226.247" r="90" transform="rotate(89.8699 191.832 226.247)" fill="#555555" stroke="#959595" stroke-width="5"/>
<defs>
<filter id="filter0_d_0_1" x="2.33246" y="35.8284" width="446.999" height="388.683" filterUnits="userSpaceOnUse" color-interpolation-filters="sRGB">
<feFlood flood-opacity="0" result="BackgroundImageFix"/>
<feColorMatrix in="SourceAlpha" type="matrix" values="0 0 0 0 0 0 0 0 0 0 0 0 0 0 0 0 0 0 127 0" result="hardAlpha"/>
<feOffset dy="4"/>
<feGaussianBlur stdDeviation="2"/>
<feComposite in2="hardAlpha" operator="out"/>
<feColorMatrix type="matrix" values="0 0 0 0 0 0 0 0 0 0 0 0 0 0 0 0 0 0 0.25 0"/>
<feBlend mode="normal" in2="BackgroundImageFix" result="effect1_dropShadow_0_1"/>
<feBlend mode="normal" in="SourceGraphic" in2="effect1_dropShadow_0_1" result="shape"/>
</filter>
<filter id="filter1_d_0_1" x="274.332" y="163.017" width="153" height="133.738" filterUnits="userSpaceOnUse" color-interpolation-filters="sRGB">
<feFlood flood-opacity="0" result="BackgroundImageFix"/>
<feColorMatrix in="SourceAlpha" type="matrix" values="0 0 0 0 0 0 0 0 0 0 0 0 0 0 0 0 0 0 127 0" result="hardAlpha"/>
<feOffset dy="4"/>
<feGaussianBlur stdDeviation="2"/>
<feComposite in2="hardAlpha" operator="out"/>
<feColorMatrix type="matrix" values="0 0 0 0 0 0 0 0 0 0 0 0 0 0 0 0 0 0 0.25 0"/>
<feBlend mode="normal" in2="BackgroundImageFix" result="effect1_dropShadow_0_1"/>
<feBlend mode="normal" in="SourceGraphic" in2="effect1_dropShadow_0_1" result="shape"/>
</filter>
<filter id="filter2_d_0_1" x="66.3308" y="103.746" width="252" height="252" filterUnits="userSpaceOnUse" color-interpolation-filters="sRGB">
<feFlood flood-opacity="0" result="BackgroundImageFix"/>
<feColorMatrix in="SourceAlpha" type="matrix" values="0 0 0 0 0 0 0 0 0 0 0 0 0 0 0 0 0 0 127 0" result="hardAlpha"/>
<feOffset dy="4"/>
<feGaussianBlur stdDeviation="2"/>
<feComposite in2="hardAlpha" operator="out"/>
<feColorMatrix type="matrix" values="0 0 0 0 0 0 0 0 0 0 0 0 0 0 0 0 0 0 0.25 0"/>
<feBlend mode="normal" in2="BackgroundImageFix" result="effect1_dropShadow_0_1"/>
<feBlend mode="normal" in="SourceGraphic" in2="effect1_dropShadow_0_1" result="shape"/>
</filter>
</defs>
</svg>
