<svg width="406" height="378" viewBox="0 0 406 378" fill="none" xmlns="http://www.w3.org/2000/svg">
<path d="M353.256 1.20441C366.511 1.22246 377.241 11.9822 377.223 25.2371L377.098 117.237L1.09824 116.725L1.22352 24.7251C1.24157 11.4702 12.0014 0.739719 25.2562 0.757768L353.256 1.20441Z" fill="#9F9F9F"/>
<path d="M353.238 14.2044C366.493 14.2224 377.224 24.9822 377.205 38.2371L377.098 117.237L1.09825 116.725L1.20582 37.725C1.22387 24.4702 11.9837 13.7397 25.2385 13.7578L353.238 14.2044Z" fill="#D9D9D9"/>
<path d="M376.902 261.237L376.777 353.237C376.758 366.492 365.999 377.222 352.744 377.204L24.7442 376.757C11.4893 376.739 0.758826 365.98 0.776875 352.725L0.902153 260.725L376.902 261.237Z" fill="#9F9F9F"/>
<path d="M376.902 261.237L376.794 340.237C376.776 353.492 366.016 364.222 352.762 364.204L24.7619 363.757C11.507 363.739 0.776528 352.98 0.794578 339.725L0.902153 260.725L376.902 261.237Z" fill="#D9D9D9"/>
<path d="M376.885 273.237L376.811 328.237C376.793 341.492 366.033 352.222 352.778 352.204L24.7782 351.757C11.5234 351.739 0.792867 340.98 0.810917 327.725L0.885811 272.725L376.885 273.237Z" fill="#E9E9E9"/>
<path d="M375.109 109.234L375.182 55.2343C375.2 41.9795 364.47 31.2197 351.215 31.2017L27.2153 30.7605C13.9605 30.7424 3.20072 41.4729 3.18267 54.7278L3.10913 108.728L375.109 109.234Z" fill="#E9E9E9"/>
<path d="M364.109 109.219L364.176 60.2193C364.194 46.9645 353.463 36.2047 340.208 36.1867L38.2085 35.7754C24.9537 35.7574 14.1939 46.4879 14.1759 59.7427L14.1091 108.743L364.109 109.219Z" fill="#E9E9E9"/>
<g style="mix-blend-mode:overlay">
<rect x="334.896" y="265.18" width="108" height="4" rx="2" transform="rotate(90.078 334.896 265.18)" fill="#282828"/>
</g>
<g style="mix-blend-mode:overlay">
<rect x="324.896" y="265.166" width="108" height="4" rx="2" transform="rotate(90.078 324.896 265.166)" fill="#282828"/>
</g>
<g style="mix-blend-mode:overlay">
<rect x="294.896" y="265.125" width="108" height="4" rx="2" transform="rotate(90.078 294.896 265.125)" fill="#282828"/>
</g>
<g style="mix-blend-mode:overlay">
<rect x="304.896" y="265.139" width="108" height="4" rx="2" transform="rotate(90.078 304.896 265.139)" fill="#282828"/>
</g>
<g style="mix-blend-mode:overlay">
<rect x="314.896" y="265.152" width="108" height="4" rx="2" transform="rotate(90.078 314.896 265.152)" fill="#282828"/>
</g>
<g style="mix-blend-mode:overlay">
<rect x="284.896" y="265.112" width="108" height="4" rx="2" transform="rotate(90.078 284.896 265.112)" fill="#282828"/>
</g>
<g style="mix-blend-mode:overlay">
<rect x="274.896" y="265.098" width="108" height="4" rx="2" transform="rotate(90.078 274.896 265.098)" fill="#282828"/>
</g>
<g style="mix-blend-mode:overlay">
<rect x="244.896" y="265.057" width="108" height="4" rx="2" transform="rotate(90.078 244.896 265.057)" fill="#282828"/>
</g>
<g style="mix-blend-mode:overlay">
<rect x="254.896" y="265.071" width="108" height="4" rx="2" transform="rotate(90.078 254.896 265.071)" fill="#282828"/>
</g>
<g style="mix-blend-mode:overlay">
<rect x="264.896" y="265.084" width="108" height="4" rx="2" transform="rotate(90.078 264.896 265.084)" fill="#282828"/>
</g>
<g style="mix-blend-mode:overlay">
<rect x="134.897" y="264.907" width="108" height="4" rx="2" transform="rotate(90.078 134.897 264.907)" fill="#282828"/>
</g>
<g style="mix-blend-mode:overlay">
<rect x="124.897" y="264.894" width="108" height="4" rx="2" transform="rotate(90.078 124.897 264.894)" fill="#282828"/>
</g>
<g style="mix-blend-mode:overlay">
<rect x="94.8966" y="264.853" width="108" height="4" rx="2" transform="rotate(90.078 94.8966 264.853)" fill="#282828"/>
</g>
<g style="mix-blend-mode:overlay">
<rect x="104.897" y="264.866" width="108" height="4" rx="2" transform="rotate(90.078 104.897 264.866)" fill="#282828"/>
</g>
<g style="mix-blend-mode:overlay">
<rect x="114.897" y="264.88" width="108" height="4" rx="2" transform="rotate(90.078 114.897 264.88)" fill="#282828"/>
</g>
<g style="mix-blend-mode:overlay">
<rect x="84.8966" y="264.839" width="108" height="4" rx="2" transform="rotate(90.078 84.8966 264.839)" fill="#282828"/>
</g>
<g style="mix-blend-mode:overlay">
<rect x="74.8966" y="264.826" width="108" height="4" rx="2" transform="rotate(90.078 74.8966 264.826)" fill="#282828"/>
</g>
<g style="mix-blend-mode:overlay">
<rect x="44.8967" y="264.785" width="108" height="4" rx="2" transform="rotate(90.078 44.8967 264.785)" fill="#282828"/>
</g>
<g style="mix-blend-mode:overlay">
<rect x="54.8967" y="264.798" width="108" height="4" rx="2" transform="rotate(90.078 54.8967 264.798)" fill="#282828"/>
</g>
<g style="mix-blend-mode:overlay">
<rect x="64.8967" y="264.812" width="108" height="4" rx="2" transform="rotate(90.078 64.8967 264.812)" fill="#282828"/>
</g>
<g style="mix-blend-mode:overlay">
<rect x="234.896" y="265.043" width="108" height="4" rx="2" transform="rotate(90.078 234.896 265.043)" fill="#282828"/>
</g>
<g style="mix-blend-mode:overlay">
<rect x="224.896" y="265.03" width="108" height="4" rx="2" transform="rotate(90.078 224.896 265.03)" fill="#282828"/>
</g>
<g style="mix-blend-mode:overlay">
<rect x="194.897" y="264.989" width="108" height="4" rx="2" transform="rotate(90.078 194.897 264.989)" fill="#282828"/>
</g>
<g style="mix-blend-mode:overlay">
<rect x="204.897" y="265.003" width="108" height="4" rx="2" transform="rotate(90.078 204.897 265.003)" fill="#282828"/>
</g>
<g style="mix-blend-mode:overlay">
<rect x="214.897" y="265.016" width="108" height="4" rx="2" transform="rotate(90.078 214.897 265.016)" fill="#282828"/>
</g>
<g style="mix-blend-mode:overlay">
<rect x="184.897" y="264.975" width="108" height="4" rx="2" transform="rotate(90.078 184.897 264.975)" fill="#282828"/>
</g>
<g style="mix-blend-mode:overlay">
<rect x="174.897" y="264.962" width="108" height="4" rx="2" transform="rotate(90.078 174.897 264.962)" fill="#282828"/>
</g>
<g style="mix-blend-mode:overlay">
<rect x="144.897" y="264.921" width="108" height="4" rx="2" transform="rotate(90.078 144.897 264.921)" fill="#282828"/>
</g>
<g style="mix-blend-mode:overlay">
<rect x="154.897" y="264.935" width="108" height="4" rx="2" transform="rotate(90.078 154.897 264.935)" fill="#282828"/>
</g>
<g style="mix-blend-mode:overlay">
<rect x="164.897" y="264.948" width="108" height="4" rx="2" transform="rotate(90.078 164.897 264.948)" fill="#282828"/>
</g>
<g style="mix-blend-mode:overlay">
<rect x="336.245" y="9.18126" width="108" height="4" rx="2" transform="rotate(90.078 336.245 9.18126)" fill="#282828"/>
</g>
<g style="mix-blend-mode:overlay">
<rect x="326.245" y="9.16763" width="108" height="4" rx="2" transform="rotate(90.078 326.245 9.16763)" fill="#282828"/>
</g>
<g style="mix-blend-mode:overlay">
<rect x="296.245" y="9.12679" width="108" height="4" rx="2" transform="rotate(90.078 296.245 9.12679)" fill="#282828"/>
</g>
<g style="mix-blend-mode:overlay">
<rect x="306.245" y="9.14041" width="108" height="4" rx="2" transform="rotate(90.078 306.245 9.14041)" fill="#282828"/>
</g>
<g style="mix-blend-mode:overlay">
<rect x="316.245" y="9.15402" width="108" height="4" rx="2" transform="rotate(90.078 316.245 9.15402)" fill="#282828"/>
</g>
<g style="mix-blend-mode:overlay">
<rect x="286.245" y="9.11317" width="108" height="4" rx="2" transform="rotate(90.078 286.245 9.11317)" fill="#282828"/>
</g>
<g style="mix-blend-mode:overlay">
<rect x="276.245" y="9.09955" width="108" height="4" rx="2" transform="rotate(90.078 276.245 9.09955)" fill="#282828"/>
</g>
<g style="mix-blend-mode:overlay">
<rect x="246.245" y="9.0587" width="108" height="4" rx="2" transform="rotate(90.078 246.245 9.0587)" fill="#282828"/>
</g>
<g style="mix-blend-mode:overlay">
<rect x="256.245" y="9.07233" width="108" height="4" rx="2" transform="rotate(90.078 256.245 9.07233)" fill="#282828"/>
</g>
<g style="mix-blend-mode:overlay">
<rect x="266.245" y="9.08594" width="108" height="4" rx="2" transform="rotate(90.078 266.245 9.08594)" fill="#282828"/>
</g>
<g style="mix-blend-mode:overlay">
<rect x="136.245" y="8.90892" width="108" height="4" rx="2" transform="rotate(90.078 136.245 8.90892)" fill="#282828"/>
</g>
<g style="mix-blend-mode:overlay">
<rect x="126.245" y="8.89529" width="108" height="4" rx="2" transform="rotate(90.078 126.245 8.89529)" fill="#282828"/>
</g>
<g style="mix-blend-mode:overlay">
<rect x="96.2452" y="8.85445" width="108" height="4" rx="2" transform="rotate(90.078 96.2452 8.85445)" fill="#282828"/>
</g>
<g style="mix-blend-mode:overlay">
<rect x="106.245" y="8.86806" width="108" height="4" rx="2" transform="rotate(90.078 106.245 8.86806)" fill="#282828"/>
</g>
<g style="mix-blend-mode:overlay">
<rect x="116.245" y="8.88168" width="108" height="4" rx="2" transform="rotate(90.078 116.245 8.88168)" fill="#282828"/>
</g>
<g style="mix-blend-mode:overlay">
<rect x="86.2452" y="8.84084" width="108" height="4" rx="2" transform="rotate(90.078 86.2452 8.84084)" fill="#282828"/>
</g>
<g style="mix-blend-mode:overlay">
<rect x="76.2452" y="8.82721" width="108" height="4" rx="2" transform="rotate(90.078 76.2452 8.82721)" fill="#282828"/>
</g>
<g style="mix-blend-mode:overlay">
<rect x="46.2453" y="8.78636" width="108" height="4" rx="2" transform="rotate(90.078 46.2453 8.78636)" fill="#282828"/>
</g>
<g style="mix-blend-mode:overlay">
<rect x="56.2453" y="8.79997" width="108" height="4" rx="2" transform="rotate(90.078 56.2453 8.79997)" fill="#282828"/>
</g>
<g style="mix-blend-mode:overlay">
<rect x="66.2452" y="8.8136" width="108" height="4" rx="2" transform="rotate(90.078 66.2452 8.8136)" fill="#282828"/>
</g>
<g style="mix-blend-mode:overlay">
<rect x="236.245" y="9.04509" width="108" height="4" rx="2" transform="rotate(90.078 236.245 9.04509)" fill="#282828"/>
</g>
<g style="mix-blend-mode:overlay">
<rect x="226.245" y="9.03146" width="108" height="4" rx="2" transform="rotate(90.078 226.245 9.03146)" fill="#282828"/>
</g>
<g style="mix-blend-mode:overlay">
<rect x="196.245" y="8.99062" width="108" height="4" rx="2" transform="rotate(90.078 196.245 8.99062)" fill="#282828"/>
</g>
<g style="mix-blend-mode:overlay">
<rect x="206.245" y="9.00424" width="108" height="4" rx="2" transform="rotate(90.078 206.245 9.00424)" fill="#282828"/>
</g>
<g style="mix-blend-mode:overlay">
<rect x="216.245" y="9.01785" width="108" height="4" rx="2" transform="rotate(90.078 216.245 9.01785)" fill="#282828"/>
</g>
<g style="mix-blend-mode:overlay">
<rect x="186.245" y="8.97701" width="108" height="4" rx="2" transform="rotate(90.078 186.245 8.97701)" fill="#282828"/>
</g>
<g style="mix-blend-mode:overlay">
<rect x="176.245" y="8.96338" width="108" height="4" rx="2" transform="rotate(90.078 176.245 8.96338)" fill="#282828"/>
</g>
<g style="mix-blend-mode:overlay">
<rect x="146.245" y="8.92253" width="108" height="4" rx="2" transform="rotate(90.078 146.245 8.92253)" fill="#282828"/>
</g>
<g style="mix-blend-mode:overlay">
<rect x="156.245" y="8.93614" width="108" height="4" rx="2" transform="rotate(90.078 156.245 8.93614)" fill="#282828"/>
</g>
<g style="mix-blend-mode:overlay">
<rect x="166.245" y="8.94977" width="108" height="4" rx="2" transform="rotate(90.078 166.245 8.94977)" fill="#282828"/>
</g>
<rect x="240.144" y="83.0505" width="210" height="210" rx="52" transform="rotate(90.078 240.144 83.0505)" fill="#BDBCBC"/>
<rect x="223.125" y="97.0273" width="182" height="182" rx="52" transform="rotate(90.078 223.125 97.0273)" fill="#888888"/>
<rect x="227.125" y="97.0327" width="182" height="182" rx="52" transform="rotate(90.078 227.125 97.0327)" fill="#D4D4D4"/>
<rect x="218.106" y="111.02" width="154" height="154" rx="52" transform="rotate(90.078 218.106 111.02)" fill="#888888"/>
<rect x="219.103" y="113.022" width="150" height="150" rx="52" transform="rotate(90.078 219.103 113.022)" fill="#D4D4D4"/>
<path d="M135.678 215.122C125.448 198.414 125.477 177.375 135.752 160.695L177.701 92.6007C190.841 71.27 217.324 62.3418 240.697 71.3623L298.346 93.6113C318.423 101.36 331.653 120.674 331.623 142.195L331.498 234.156C331.469 255.676 318.187 274.954 298.089 282.648L240.379 304.74C216.981 313.697 190.524 304.696 177.441 283.33L135.678 215.122Z" fill="#BDBCBC"/>
<path d="M139.695 215.64C129.455 198.926 129.484 177.874 139.77 161.188L174.43 104.96C187.571 83.641 214.042 74.7177 237.408 83.73L283.331 101.442C303.413 109.188 316.647 128.505 316.618 150.029L316.513 227.28C316.483 248.804 303.196 268.085 283.093 275.776L237.122 293.363C213.732 302.312 187.286 293.317 174.202 271.962L139.695 215.64Z" fill="#797979"/>
<path d="M147.642 215.114C137.432 198.418 137.461 177.404 147.716 160.736L179.658 108.821C192.796 87.4663 219.302 78.5282 242.689 87.5655L284.122 103.576C304.188 111.33 317.408 130.639 317.379 152.151L317.281 224.16C317.252 245.672 303.979 264.945 283.892 272.645L242.416 288.542C219.004 297.516 192.523 288.505 179.442 267.115L147.642 215.114Z" fill="#D5D5D5"/>
<path d="M158.762 218.714C148.482 201.977 148.511 180.875 158.836 164.165L183.041 124.994C196.187 103.722 222.612 94.8179 245.95 103.798L275.137 115.027C295.24 122.762 308.494 142.09 308.464 163.63L308.388 219.657C308.359 241.197 295.053 260.489 274.929 268.169L245.711 279.319C222.348 288.235 195.948 279.259 182.86 257.951L158.762 218.714Z" fill="#797979"/>
<path d="M165.59 218.105C155.407 201.426 155.436 180.445 165.664 163.793L187.61 128.065C200.746 106.679 227.283 97.7279 250.689 106.788L275.901 116.546C295.953 124.308 309.16 143.61 309.131 165.111L309.06 217.178C309.03 238.679 295.771 257.945 275.698 265.652L250.459 275.342C227.029 284.338 200.516 275.314 187.438 253.893L165.59 218.105Z" fill="#D5D5D5"/>
<rect x="405.032" y="165.275" width="47" height="230" rx="6" transform="rotate(90.078 405.032 165.275)" fill="#AEAEAE"/>
<rect x="200.033" y="164.996" width="47" height="25" rx="6" transform="rotate(90.078 200.033 164.996)" fill="#989898"/>
<rect x="200.023" y="171.996" width="33" height="25" rx="6" transform="rotate(90.078 200.023 171.996)" fill="#B5B5B5"/>
<rect x="200.016" y="176.996" width="23" height="25" rx="6" transform="rotate(90.078 200.016 176.996)" fill="#D7D7D7"/>
<rect x="200" y="188.996" width="6" height="25" rx="3" transform="rotate(90.078 200 188.996)" fill="white"/>
<rect x="405.027" y="169.275" width="37" height="177" rx="5" transform="rotate(90.078 405.027 169.275)" fill="#C0C0C0"/>
<rect x="405.015" y="178.275" width="20" height="161" rx="3" transform="rotate(90.078 405.015 178.275)" fill="#D0D0D0"/>
<rect x="405" y="189.275" width="6" height="161" rx="3" transform="rotate(90.078 405 189.275)" fill="white"/>
<rect x="296.061" y="144.127" width="90" height="90" rx="17" transform="rotate(90.078 296.061 144.127)" fill="#9F9F9F"/>
<rect x="296.05" y="152.127" width="74" height="90" rx="17" transform="rotate(90.078 296.05 152.127)" fill="#C0C0C0"/>
<rect x="296.037" y="162.127" width="60" height="90" rx="17" transform="rotate(90.078 296.037 162.127)" fill="#D2D2D2"/>
<rect x="296.02" y="174.127" width="36" height="90" rx="17" transform="rotate(90.078 296.02 174.127)" fill="white"/>
</svg>
