<?xml version="1.0" encoding="iso-8859-1"?>
<!-- Generator: Adobe Illustrator 19.0.0, SVG Export Plug-In . SVG Version: 6.00 Build 0)  -->
<svg version="1.1" id="Layer_1" xmlns="http://www.w3.org/2000/svg" xmlns:xlink="http://www.w3.org/1999/xlink" x="0px" y="0px"
	 viewBox="0 0 512 512" style="enable-background:new 0 0 512 512;" xml:space="preserve">
<g>
	<g>
		<path d="M479.785,205.067L287.954,13.236C279.418,4.7,268.07,0,256.001,0c-12.07,0-23.417,4.7-31.953,13.236L32.215,205.067
			c-8.536,8.535-13.235,19.883-13.235,31.953c0,12.071,4.701,23.418,13.235,31.954c17.621,17.619,46.289,17.618,63.907,0
			l114.69-114.691v312.528c0,24.918,20.271,45.189,45.189,45.189s45.189-20.271,45.189-45.189V154.283l114.689,114.691
			c17.619,17.618,46.287,17.618,63.907,0c8.536-8.536,13.236-19.883,13.236-31.954C493.021,224.951,488.32,213.602,479.785,205.067z
			 M465.362,254.55c-9.667,9.667-25.394,9.667-35.059,0L298.202,122.449c-2.917-2.917-7.305-3.789-11.115-2.211
			c-3.81,1.579-6.296,5.299-6.296,9.423v337.151c0,13.669-11.121,24.79-24.79,24.79c-13.669,0-24.79-11.121-24.79-24.79V129.66
			c0-4.126-2.485-7.844-6.296-9.423c-1.263-0.523-2.587-0.777-3.901-0.777c-2.654,0-5.263,1.037-7.214,2.988L81.698,254.55
			c-9.666,9.667-25.393,9.667-35.059,0c-4.682-4.682-7.261-10.907-7.261-17.529c0-6.621,2.578-12.847,7.261-17.529L238.471,27.659
			c4.682-4.682,10.908-7.261,17.529-7.261c6.621,0,12.847,2.578,17.529,7.261l191.832,191.832
			c4.682,4.682,7.261,10.908,7.261,17.529C472.622,243.643,470.044,249.867,465.362,254.55z"/>
	</g>
</g>
<g>
	<g>
		<path d="M371.835,137.616l-3.06-3.06c-3.984-3.983-10.442-3.983-14.425,0c-3.983,3.984-3.983,10.442,0,14.425l3.06,3.06
			c1.991,1.992,4.602,2.987,7.212,2.987s5.221-0.995,7.213-2.987C375.818,148.057,375.818,141.599,371.835,137.616z"/>
	</g>
</g>
<g>
	<g>
		<path d="M345.827,111.608l-80.574-80.574c-3.984-3.983-10.442-3.984-14.425,0c-3.983,3.984-3.983,10.442,0,14.425l80.574,80.574
			c1.991,1.992,4.602,2.987,7.212,2.987c2.61,0,5.221-0.995,7.213-2.987C349.81,122.049,349.81,115.591,345.827,111.608z"/>
	</g>
</g>
<g>
</g>
<g>
</g>
<g>
</g>
<g>
</g>
<g>
</g>
<g>
</g>
<g>
</g>
<g>
</g>
<g>
</g>
<g>
</g>
<g>
</g>
<g>
</g>
<g>
</g>
<g>
</g>
<g>
</g>
</svg>
